<?xml version="1.0" encoding="UTF-8" standalone="no"?>
<svg
   width="149"
   height="76"
   viewBox="0 0 149 76"
   fill="none"
   version="1.1"
   id="svg4"
   sodipodi:docname="Frame 1.svg"
   inkscape:version="1.4 (e7c3feb1, 2024-10-09)"
   xmlns:inkscape="http://www.inkscape.org/namespaces/inkscape"
   xmlns:sodipodi="http://sodipodi.sourceforge.net/DTD/sodipodi-0.dtd"
   xmlns="http://www.w3.org/2000/svg"
   xmlns:svg="http://www.w3.org/2000/svg">
  <sodipodi:namedview
     id="namedview4"
     pagecolor="#ffffff"
     bordercolor="#000000"
     borderopacity="0.25"
     inkscape:showpageshadow="2"
     inkscape:pageopacity="0.0"
     inkscape:pagecheckerboard="0"
     inkscape:deskcolor="#d1d1d1"
     showgrid="false"
     inkscape:zoom="5.5082267"
     inkscape:cx="76.249585"
     inkscape:cy="45.658978"
     inkscape:window-width="1920"
     inkscape:window-height="964"
     inkscape:window-x="1"
     inkscape:window-y="25"
     inkscape:window-maximized="0"
     inkscape:current-layer="svg4" />
  <path
     d="m 82.590929,35.256746 v -24.7273 h 5.228 v 20.4169 h 10.6007 v 4.3104 z m 19.194701,0 v -18.5455 h 5.143 v 18.5455 z m 2.584,-20.9361 c -0.765,0 -1.421,-0.2535 -1.968,-0.7606 -0.54,-0.5152 -0.809,-1.131 -0.809,-1.8473 0,-0.7084 0.269,-1.3161 0.809,-1.8231903 0.547,-0.51515 1.203,-0.77273 1.968,-0.77273 0.764,0 1.416,0.25758 1.956,0.77273 0.547,0.5070903 0.821,1.1147903 0.821,1.8231903 0,0.7163 -0.274,1.3321 -0.821,1.8473 -0.54,0.5071 -1.192,0.7606 -1.956,0.7606 z m 22.11,7.679 -4.709,0.2898 c -0.08,-0.4025 -0.254,-0.7647 -0.519,-1.0867 -0.266,-0.33 -0.616,-0.5916 -1.051,-0.7848 -0.426,-0.2012 -0.937,-0.3018 -1.533,-0.3018 -0.797,0 -1.469,0.169 -2.016,0.5071 -0.548,0.33 -0.821,0.7727 -0.821,1.3281 0,0.4427 0.177,0.817 0.531,1.1229 0.354,0.3058 0.962,0.5513 1.823,0.7365 l 3.357,0.6761 c 1.803,0.3703 3.147,0.9659 4.032,1.7869 0.886,0.8211 1.328,1.8997 1.328,3.2358 0,1.2155 -0.358,2.282 -1.074,3.1996 -0.709,0.9176 -1.682,1.634 -2.922,2.1492 -1.232,0.5071 -2.652,0.7606 -4.262,0.7606 -2.455,0 -4.411,-0.5111 -5.868,-1.5334 -1.449,-1.0303 -2.298,-2.4308 -2.548,-4.2017 l 5.059,-0.2656 c 0.153,0.7486 0.524,1.3201 1.111,1.7145 0.588,0.3864 1.34,0.5795 2.258,0.5795 0.901,0 1.626,-0.173 2.173,-0.5191 0.556,-0.3542 0.837,-0.809 0.845,-1.3644 -0.008,-0.4668 -0.205,-0.8492 -0.591,-1.147 -0.387,-0.3059 -0.982,-0.5393 -1.787,-0.7003 l -3.212,-0.6399 c -1.811,-0.3622 -3.159,-0.9901 -4.045,-1.8835 -0.877,-0.8935 -1.316,-2.0325 -1.316,-3.4169 0,-1.1913 0.322,-2.2176 0.966,-3.0789 0.652,-0.8612 1.566,-1.5253 2.741,-1.9921 1.183,-0.4669 2.568,-0.7003 4.154,-0.7003 2.342,0 4.185,0.495 5.529,1.4851 1.353,0.99 2.141,2.3383 2.367,4.0447 z m 13.526,-5.2884 v 3.8637 h -11.169 v -3.8637 z m -8.633,-4.4431 h 5.143 v 17.2897 c 0,0.4749 0.073,0.8452 0.218,1.1108 0.144,0.2576 0.346,0.4387 0.603,0.5434 0.266,0.1046 0.572,0.1569 0.918,0.1569 0.241,0 0.483,-0.0201 0.724,-0.0604 0.242,-0.0482 0.427,-0.0845 0.556,-0.1086 l 0.809,3.8274 c -0.258,0.0805 -0.62,0.1731 -1.087,0.2777 -0.467,0.1127 -1.034,0.1811 -1.702,0.2053 -1.24,0.0482 -2.327,-0.1168 -3.26,-0.4951 -0.926,-0.3783 -1.646,-0.9659 -2.162,-1.7628 -0.515,-0.7968 -0.768,-1.803 -0.76,-3.0184 z m -42.705501,33.3728 c -0.0966,-0.9739 -0.5111,-1.7306 -1.2436,-2.2699 -0.7325,-0.5393 -1.7266,-0.8089 -2.9823,-0.8089 -0.8532,0 -1.5736,0.1207 -2.1612,0.3622 -0.5876,0.2334 -1.0383,0.5594 -1.3523,0.978 -0.3058,0.4186 -0.4588,0.8935 -0.4588,1.4247 -0.0161,0.4427 0.0765,0.8291 0.2777,1.1591 0.2093,0.33 0.4951,0.6158 0.8573,0.8572 0.3622,0.2335 0.7808,0.4387 1.2557,0.6158 0.4749,0.169 0.982,0.3139 1.5213,0.4347 l 2.2216,0.5312 c 1.0786,0.2415 2.0686,0.5635 2.9701,0.9659 0.9015,0.4025 1.6823,0.8975 2.3424,1.4851 0.6596,0.5876 1.1716,1.2798 1.5336,2.0767 0.37,0.7969 0.559,1.7105 0.567,2.7408 -0.008,1.5132 -0.394,2.8253 -1.159,3.9361 -0.7565,1.1027 -1.8512,1.96 -3.284,2.5717 -1.4247,0.6037 -3.1432,0.9055 -5.1555,0.9055 -1.9962,0 -3.7349,-0.3058 -5.2159,-0.9176 -1.473,-0.6117 -2.6241,-1.5173 -3.4531,-2.7166 -0.8211,-1.2074 -1.2517,-2.7005 -1.292,-4.4794 h 5.059 c 0.0563,0.8291 0.2938,1.5213 0.7124,2.0767 0.4266,0.5474 0.994,0.9619 1.7024,1.2436 0.7164,0.2737 1.5253,0.4105 2.4268,0.4105 0.8854,0 1.6541,-0.1288 2.3061,-0.3863 0.6601,-0.2576 1.1712,-0.6158 1.5334,-1.0746 0.3622,-0.4588 0.5433,-0.986 0.5433,-1.5817 0,-0.5554 -0.165,-1.0222 -0.495,-1.4006 -0.322,-0.3783 -0.7969,-0.7002 -1.4247,-0.9659 -0.6198,-0.2656 -1.3805,-0.5071 -2.282,-0.7244 l -2.6924,-0.6761 c -2.0848,-0.5071 -3.7309,-1.3 -4.9383,-2.3786 -1.2073,-1.0786 -1.807,-2.5315 -1.799,-4.3586 -0.008,-1.4972 0.3904,-2.8052 1.1953,-3.9241 0.813,-1.1188 1.9278,-1.9921 3.3445,-2.62 1.4167,-0.6278 3.0265,-0.9417 4.8296,-0.9417 1.8352,0 3.437,0.3139 4.8054,0.9417 1.3764,0.6279 2.4469,1.5012 3.2117,2.62 0.765,1.1189 1.159,2.4148 1.183,3.8878 z m 8.7685,24.5703 v -25.5 h 5.071001 v 3.1151 h 0.23 c 0.225,-0.4991 0.551,-1.0062 0.978,-1.5213 0.434,-0.5232 0.998,-0.9579 1.69,-1.304 0.7,-0.3541 1.569,-0.5312 2.608,-0.5312 1.352,0 2.6,0.3541 3.743,1.0625 1.143,0.7003 2.056,1.7587 2.74,3.1754 0.685,1.4086 1.027,3.1754 1.027,5.3004 0,2.0687 -0.334,3.8154 -1.002,5.2401 -0.66,1.4166 -1.562,2.4912 -2.705,3.2237 -1.135,0.7244 -2.407,1.0866 -3.815,1.0866 -0.998,0 -1.848,-0.165 -2.548,-0.495 -0.692,-0.33 -1.26,-0.7445 -1.702,-1.2436 -0.443,-0.5071 -0.781,-1.0182 -1.014,-1.5334 h -0.157 v 9.9247 z m 5.035001,-16.2272 c 0,1.1027 0.153,2.0646 0.459,2.8856 0.306,0.821 0.748,1.461 1.328,1.9198 0.579,0.4507 1.284,0.6761 2.113,0.6761 0.837,0 1.545,-0.2294 2.125,-0.6882 0.579,-0.4669 1.018,-1.1108 1.316,-1.9318 0.306,-0.8291 0.459,-1.7829 0.459,-2.8615 0,-1.0706 -0.149,-2.0123 -0.447,-2.8253 -0.298,-0.813 -0.737,-1.4489 -1.316,-1.9077 -0.58,-0.4588 -1.292,-0.6882 -2.137,-0.6882 -0.837,0 -1.546,0.2214 -2.125,0.6641 -0.572,0.4427 -1.01,1.0705 -1.316,1.8835 -0.306,0.813 -0.459,1.7708 -0.459,2.8736 z m 21.624,-15.4546 v 24.7273 h -5.143 v -24.7273 z m 4.12,24.7273 v -18.5455 h 5.144 v 18.5455 z m 2.584,-20.9361 c -0.764,0 -1.42,-0.2535 -1.968,-0.7606 -0.539,-0.5152 -0.809,-1.131 -0.809,-1.8473 0,-0.7084 0.27,-1.3161 0.809,-1.8232 0.548,-0.5151 1.204,-0.7727 1.968,-0.7727 0.765,0 1.417,0.2576 1.956,0.7727 0.548,0.5071 0.821,1.1148 0.821,1.8232 0,0.7163 -0.273,1.3321 -0.821,1.8473 -0.539,0.5071 -1.191,0.7606 -1.956,0.7606 z m 16.544,2.3906 v 3.8637 h -11.168 v -3.8637 z m -8.632,-4.4431 h 5.143 v 17.2897 c 0,0.4749 0.073,0.8452 0.217,1.1108 0.145,0.2576 0.347,0.4387 0.604,0.5434 0.266,0.1046 0.572,0.1569 0.918,0.1569 0.241,0 0.483,-0.0201 0.724,-0.0604 0.242,-0.0482 0.427,-0.0845 0.556,-0.1086 l 0.809,3.8274 c -0.258,0.0805 -0.62,0.1731 -1.087,0.2777 -0.467,0.1127 -1.034,0.1811 -1.703,0.2053 -1.239,0.0482 -2.326,-0.1168 -3.259,-0.4951 -0.926,-0.3783 -1.647,-0.9659 -2.162,-1.7628 -0.515,-0.7968 -0.768,-1.803 -0.76,-3.0184 z"
     fill="#000000"
     id="path1" />
  <g
     filter="url(#filter0_d_229_1580)"
     id="g2"
     transform="translate(-7.7023712,0.25674571)">
    <path
       d="m 35.2199,10 c 10e-5,23.617 -41.45054,55.7037 -12.1915,55.7037 26.8209,0 47.5206,4.2418 47.5464,-19.3752 M 66.943,10.602 c -15.8487,8.4767 -29.2849,15.1404 -13.4362,21.1951 12.679,4.8438 12.1914,7.2657 -13.4104,21.7971"
       stroke="#000000"
       stroke-width="8"
       id="path2" />
  </g>
  <defs
     id="defs4">
    <filter
       id="filter0_d_229_1580"
       x="0.57495099"
       y="7.0748501"
       width="81.999901"
       height="78.925201"
       filterUnits="userSpaceOnUse"
       color-interpolation-filters="sRGB">
      <feFlood
         flood-opacity="0"
         result="BackgroundImageFix"
         id="feFlood2" />
      <feColorMatrix
         in="SourceAlpha"
         type="matrix"
         values="0 0 0 0 0 0 0 0 0 0 0 0 0 0 0 0 0 0 127 0"
         result="hardAlpha"
         id="feColorMatrix2" />
      <feOffset
         dy="8"
         id="feOffset2" />
      <feGaussianBlur
         stdDeviation="4"
         id="feGaussianBlur2" />
      <feComposite
         in2="hardAlpha"
         operator="out"
         id="feComposite2" />
      <feColorMatrix
         type="matrix"
         values="0 0 0 0 0 0 0 0 0 0 0 0 0 0 0 0 0 0 0.25 0"
         id="feColorMatrix3" />
      <feBlend
         mode="normal"
         in2="BackgroundImageFix"
         result="effect1_dropShadow_229_1580"
         id="feBlend3" />
      <feBlend
         mode="normal"
         in="SourceGraphic"
         in2="effect1_dropShadow_229_1580"
         result="shape"
         id="feBlend4" />
    </filter>
  </defs>
</svg>
